<svg class="main-svg" xmlns="http://www.w3.org/2000/svg" xmlns:xlink="http://www.w3.org/1999/xlink" width="700" height="500" style="" viewBox="0 0 700 500"><rect x="0" y="0" width="700" height="500" style="fill: rgb(255, 255, 255); fill-opacity: 1;"/><defs id="defs-f62b8c"><g class="clips"/><g class="gradients"/><g class="patterns"/></defs><g class="bglayer"/><g class="layer-below"><g class="imagelayer"/><g class="shapelayer"/></g><g class="cartesianlayer"/><g class="polarlayer"/><g class="smithlayer"/><g class="ternarylayer"/><g class="geolayer"/><g class="funnelarealayer"/><g class="pielayer"/><g class="iciclelayer"/><g class="treemaplayer"/><g class="sunburstlayer"><g class="trace sunburst" stroke-linejoin="round" style="opacity: 1;"><g class="slice cursor-pointer"><path class="surface" d="M350,277.5L458.75,277.5A108.75,108.75 0,0,0 273.6259605184051,200.0818587586618L350,277.5A0,0 0,0,1 350,277.5Z" style="pointer-events: none; stroke-width: 1; fill: rgb(99, 110, 250); fill-opacity: 1; stroke: rgb(255, 255, 255); stroke-opacity: 1;"/><g class="slicetext"><text data-notex="1" class="slicetext" text-anchor="middle" x="0" y="0" style="font-family: 'Open Sans', verdana, arial, sans-serif; font-size: 12px; fill: rgb(255, 255, 255); fill-opacity: 1; white-space: pre;" transform="translate(369.60313123512236,230.76628638826116)rotate(22.69448877330001)">Activites des sieges sociaux</text></g></g><g class="slice cursor-pointer"><path class="surface" d="M350,277.5L273.6259605184051,200.0818587586618A108.75,108.75 0,0,0 283.75646058358365,363.7459041670136L350,277.5A0,0 0,0,1 350,277.5Z" style="pointer-events: none; stroke-width: 1; fill: rgb(171, 99, 250); fill-opacity: 1; stroke: rgb(255, 255, 255); stroke-opacity: 1;"/><g class="slicetext"><text data-notex="1" class="slicetext" text-anchor="middle" x="0" y="0" style="font-family: 'Open Sans', verdana, arial, sans-serif; font-size: 12px; fill: rgb(68, 68, 68); fill-opacity: 1; white-space: pre;" transform="translate(287.68082545142954,285.8306023705408)">Peche en mer</text></g></g><g class="slice cursor-pointer"><path class="surface" d="M350,277.5L283.75646058358365,363.7459041670136A108.75,108.75 0,0,0 431.13025258385153,349.91853779026786L350,277.5A0,0 0,0,1 350,277.5Z" style="pointer-events: none; stroke-width: 1; fill: rgb(0, 204, 150); fill-opacity: 1; stroke: rgb(255, 255, 255); stroke-opacity: 1;"/><g class="slicetext"><text data-notex="1" class="slicetext" text-anchor="middle" x="0" y="0" style="font-family: 'Open Sans', verdana, arial, sans-serif; font-size: 12px; fill: rgb(68, 68, 68); fill-opacity: 1; white-space: pre;" transform="translate(357.57459975390583,362.21401525500926)rotate(-5.360092597107496)">Commerce de gros</text></g></g><g class="slice cursor-pointer"><path class="surface" d="M350,277.5L431.13025258385153,349.91853779026786A108.75,108.75 0,0,0 458.75,277.49999999999994L350,277.5A0,0 0,0,1 350,277.5Z" style="pointer-events: none; stroke-width: 1; fill: rgb(239, 85, 59); fill-opacity: 1; stroke: rgb(255, 255, 255); stroke-opacity: 1;"/><g class="slicetext"><text data-notex="1" class="slicetext" text-anchor="middle" x="0" y="0" style="font-family: 'Open Sans', verdana, arial, sans-serif; font-size: 12px; fill: rgb(68, 68, 68); fill-opacity: 1; white-space: pre;" transform="translate(407.2799233905633,303.1803046256602)scale(0.7961259959684915)rotate(20.876379433697025)">Autres débouchés</text></g></g><g class="slice"><path class="surface" d="M458.75,277.5L567.5,277.5A217.5,217.5 0,0,0 197.43396700984044,122.48433763762594L273.7169835049202,199.99216881881296A108.75,108.75 0,0,1 458.75,277.5Z" style="pointer-events: none; stroke-width: 1; fill: rgb(99, 110, 250); fill-opacity: 1; stroke: rgb(255, 255, 255); stroke-opacity: 1; opacity: 0.7;"/><g class="slicetext"><text data-notex="1" class="slicetext" text-anchor="middle" x="0" y="0" style="font-family: 'Open Sans', verdana, arial, sans-serif; font-size: 12px; fill: rgb(255, 255, 255); fill-opacity: 1; white-space: pre;" transform="translate(399.81644989107866,157.80066132254768)rotate(22.728151510957105)">CAPITAINE HOUAT</text></g></g><g class="slice"><path class="surface" d="M273.7169835049202,199.99216881881296L197.43396700984044,122.48433763762594A217.5,217.5 0,0,0 197.2519210368103,122.66371751732362L273.6259605184051,200.0818587586618A108.75,108.75 0,0,1 273.7169835049202,199.99216881881296Z" style="pointer-events: none; stroke-width: 1; fill: rgb(99, 110, 250); fill-opacity: 1; stroke: rgb(255, 255, 255); stroke-opacity: 1; opacity: 0.7;"/><g class="slicetext"><text data-notex="1" class="slicetext" text-anchor="middle" x="0" y="0" style="font-family: 'Open Sans', verdana, arial, sans-serif; font-size: 12px; fill: rgb(255, 255, 255); fill-opacity: 1; white-space: pre;" transform="translate(197.9086224923819,123.25348116902302)scale(0.016434330357743422)rotate(45.42264028425711)">Autres acheteurs</text></g></g><g class="slice"><path class="surface" d="M273.6259605184051,200.0818587586618L197.2519210368103,122.66371751732362A217.5,217.5 0,0,0 217.5108622311463,449.99022689203497L283.7554311155732,363.7451134460175A108.75,108.75 0,0,1 273.6259605184051,200.0818587586618Z" style="pointer-events: none; stroke-width: 1; fill: rgb(171, 99, 250); fill-opacity: 1; stroke: rgb(255, 255, 255); stroke-opacity: 1; opacity: 0.7;"/><g class="slicetext"><text data-notex="1" class="slicetext" text-anchor="middle" x="0" y="0" style="font-family: 'Open Sans', verdana, arial, sans-serif; font-size: 12px; fill: rgb(68, 68, 68); fill-opacity: 1; white-space: pre;" transform="translate(194.26350845005442,286.9382878055507)rotate(86.45835869753148)">COPROPRIETE DU NAVIRE EMERAUDE</text></g></g><g class="slice"><path class="surface" d="M283.7554311155732,363.7451134460175L217.5108622311463,449.99022689203497A217.5,217.5 0,0,0 217.51292116716715,449.99180833402704L283.7564605835836,363.7459041670135A108.75,108.75 0,0,1 283.7554311155732,363.7451134460175Z" style="pointer-events: none; stroke-width: 1; fill: rgb(171, 99, 250); fill-opacity: 1; stroke: rgb(255, 255, 255); stroke-opacity: 1; opacity: 0.7;"/><g class="slicetext"><text data-notex="1" class="slicetext" text-anchor="middle" x="0" y="0" style="font-family: 'Open Sans', verdana, arial, sans-serif; font-size: 12px; fill: rgb(68, 68, 68); fill-opacity: 1; white-space: pre;" transform="translate(217.517987784301,449.9843241396486)scale(0.00016829047622337186)rotate(-52.47260210657305)">Autres acheteurs</text></g></g><g class="slice"><path class="surface" d="M283.75646058358365,363.7459041670136L217.5129211671673,449.9918083340272A217.5,217.5 0,0,0 355.27622984944327,494.93599379719967L352.63811492472166,386.21799689859984A108.75,108.75 0,0,1 283.75646058358365,363.7459041670136Z" style="pointer-events: none; stroke-width: 1; fill: rgb(0, 204, 150); fill-opacity: 1; stroke: rgb(255, 255, 255); stroke-opacity: 1; opacity: 0.7;"/><g class="slicetext"><text data-notex="1" class="slicetext" text-anchor="middle" x="0" y="0" style="font-family: 'Open Sans', verdana, arial, sans-serif; font-size: 12px; fill: rgb(68, 68, 68); fill-opacity: 1; white-space: pre;" transform="translate(299.53104917691564,437.10496560801346)">Autres acheteurs</text></g></g><g class="slice"><path class="surface" d="M352.63811492472166,386.21799689859984L355.27622984944327,494.93599379719967A217.5,217.5 0,0,0 385.9233145044316,492.0128561998457L367.9616572522158,384.75642809992286A108.75,108.75 0,0,1 352.63811492472166,386.21799689859984Z" style="pointer-events: none; stroke-width: 1; fill: rgb(0, 204, 150); fill-opacity: 1; stroke: rgb(255, 255, 255); stroke-opacity: 1; opacity: 0.7;"/><g class="slicetext"><text data-notex="1" class="slicetext" text-anchor="middle" x="0" y="0" style="font-family: 'Open Sans', verdana, arial, sans-serif; font-size: 12px; fill: rgb(68, 68, 68); fill-opacity: 1; white-space: pre;" transform="translate(361.4026208628646,440.31543855553053)scale(0.9129267035421266)rotate(84.55157604006104)">ALLARD MAREE SA</text></g></g><g class="slice"><path class="surface" d="M367.9616572522158,384.75642809992286L385.9233145044316,492.0128561998457A217.5,217.5 0,0,0 410.34508178615795,486.46105164413274L380.172540893079,381.9805258220664A108.75,108.75 0,0,1 367.9616572522158,384.75642809992286Z" style="pointer-events: none; stroke-width: 1; fill: rgb(0, 204, 150); fill-opacity: 1; stroke: rgb(255, 255, 255); stroke-opacity: 1; opacity: 0.7;"/><g class="slicetext"><text data-notex="1" class="slicetext" text-anchor="middle" x="0" y="0" style="font-family: 'Open Sans', verdana, arial, sans-serif; font-size: 12px; fill: rgb(68, 68, 68); fill-opacity: 1; white-space: pre;" transform="translate(384.356506757814,448.6838226093387)scale(0.9878495574408298)rotate(77.19260429253211)">FURIC MAREE</text></g></g><g class="slice"><path class="surface" d="M380.172540893079,381.9805258220664L410.34508178615795,486.46105164413274A217.5,217.5 0,0,0 433.3481859376649,478.39631629499945L391.67409296883244,377.9481581474997A108.75,108.75 0,0,1 380.172540893079,381.9805258220664Z" style="pointer-events: none; stroke-width: 1; fill: rgb(0, 204, 150); fill-opacity: 1; stroke: rgb(255, 255, 255); stroke-opacity: 1; opacity: 0.7;"/><g class="slicetext"><text data-notex="1" class="slicetext" text-anchor="middle" x="0" y="0" style="font-family: 'Open Sans', verdana, arial, sans-serif; font-size: 12px; fill: rgb(68, 68, 68); fill-opacity: 1; white-space: pre;" transform="translate(401.60559561790484,432.24493544872587)scale(0.555085141636025)rotate(70.67967300599832)">LES CHALUTIERS BOULONNAIS</text></g></g><g class="slice"><path class="surface" d="M391.67409296883244,377.9481581474997L433.3481859376649,478.39631629499945A217.5,217.5 0,0,0 455.0188619577169,467.96597762620496L402.50943097885846,372.73298881310245A108.75,108.75 0,0,1 391.67409296883244,377.9481581474997Z" style="pointer-events: none; stroke-width: 1; fill: rgb(0, 204, 150); fill-opacity: 1; stroke: rgb(255, 255, 255); stroke-opacity: 1; opacity: 0.7;"/><g class="slicetext"><text data-notex="1" class="slicetext" text-anchor="middle" x="0" y="0" style="font-family: 'Open Sans', verdana, arial, sans-serif; font-size: 12px; fill: rgb(68, 68, 68); fill-opacity: 1; white-space: pre;" transform="translate(419.4032436171327,430.5302714929821)scale(0.8513905348899333)rotate(64.29796792201569)">GFM PRODUCTION</text></g></g><g class="slice"><path class="surface" d="M402.50943097885846,372.73298881310245L455.0188619577169,467.96597762620496A217.5,217.5 0,0,0 473.5449788795788,456.50527420622115L411.7724894397894,367.0026371031106A108.75,108.75 0,0,1 402.50943097885846,372.73298881310245Z" style="pointer-events: none; stroke-width: 1; fill: rgb(0, 204, 150); fill-opacity: 1; stroke: rgb(255, 255, 255); stroke-opacity: 1; opacity: 0.7;"/><g class="slicetext"><text data-notex="1" class="slicetext" text-anchor="middle" x="0" y="0" style="font-family: 'Open Sans', verdana, arial, sans-serif; font-size: 12px; fill: rgb(68, 68, 68); fill-opacity: 1; white-space: pre;" transform="translate(433.086017823598,417.7125603327991)scale(0.6903304665895083)rotate(58.258063994298254)">MOULIN LORIENT MAREE</text></g></g><g class="slice"><path class="surface" d="M411.7724894397894,367.0026371031106L473.5449788795788,456.50527420622115A217.5,217.5 0,0,0 489.72090291689705,444.1862900423638L419.86045145844855,360.8431450211819A108.75,108.75 0,0,1 411.7724894397894,367.0026371031106Z" style="pointer-events: none; stroke-width: 1; fill: rgb(0, 204, 150); fill-opacity: 1; stroke: rgb(255, 255, 255); stroke-opacity: 1; opacity: 0.7;"/><g class="slicetext"><text data-notex="1" class="slicetext" text-anchor="middle" x="0" y="0" style="font-family: 'Open Sans', verdana, arial, sans-serif; font-size: 12px; fill: rgb(68, 68, 68); fill-opacity: 1; white-space: pre;" transform="translate(454.28647688701824,420.57078636665443)scale(0.8257819661242375)rotate(52.70844562250164)">ARPEGE MAREE</text></g></g><g class="slice"><path class="surface" d="M419.86045145844855,360.8431450211819L489.72090291689705,444.1862900423638A217.5,217.5 0,0,0 501.58890764653313,433.4713213335414L425.79445382326656,355.48566066677074A108.75,108.75 0,0,1 419.86045145844855,360.8431450211819Z" style="pointer-events: none; stroke-width: 1; fill: rgb(0, 204, 150); fill-opacity: 1; stroke: rgb(255, 255, 255); stroke-opacity: 1; opacity: 0.7;"/><g class="slicetext"><text data-notex="1" class="slicetext" text-anchor="middle" x="0" y="0" style="font-family: 'Open Sans', verdana, arial, sans-serif; font-size: 12px; fill: rgb(68, 68, 68); fill-opacity: 1; white-space: pre;" transform="translate(466.7519826848528,411.22082866515456)scale(0.6560108296326779)rotate(47.922856019889764)">MAISON DONATIEN</text></g></g><g class="slice"><path class="surface" d="M425.79445382326656,355.48566066677074L501.58890764653313,433.4713213335414A217.5,217.5 0,0,0 512.2605051677031,422.3370755805357L431.13025258385153,349.91853779026786A108.75,108.75 0,0,1 425.79445382326656,355.48566066677074Z" style="pointer-events: none; stroke-width: 1; fill: rgb(0, 204, 150); fill-opacity: 1; stroke: rgb(255, 255, 255); stroke-opacity: 1; opacity: 0.7;"/><g class="slicetext"><text data-notex="1" class="slicetext" text-anchor="middle" x="0" y="0" style="font-family: 'Open Sans', verdana, arial, sans-serif; font-size: 12px; fill: rgb(68, 68, 68); fill-opacity: 1; white-space: pre;" transform="translate(466.25504426002243,391.7960000483295)scale(0.46069270246745536)rotate(43.784554472801915)">NOUVELLE PECHERIES ARMORICAINE</text></g></g><g class="slice"><path class="surface" d="M431.13025258385153,349.91853779026786L512.2605051677031,422.3370755805357A217.5,217.5 0,0,0 538.6767248748137,385.70047823606814L444.33836243740683,331.6002391180341A108.75,108.75 0,0,1 431.13025258385153,349.91853779026786Z" style="pointer-events: none; stroke-width: 1; fill: rgb(239, 85, 59); fill-opacity: 1; stroke: rgb(255, 255, 255); stroke-opacity: 1; opacity: 0.7;"/><g class="slicetext"><text data-notex="1" class="slicetext" text-anchor="middle" x="0" y="0" style="font-family: 'Open Sans', verdana, arial, sans-serif; font-size: 12px; fill: rgb(68, 68, 68); fill-opacity: 1; white-space: pre;" transform="translate(479.46130309740687,376.39372761016966)rotate(35.792872418108004)">MAREE FRAICHE</text></g></g><g class="slice"><path class="surface" d="M444.33836243740683,331.6002391180341L538.6767248748137,385.70047823606814A217.5,217.5 0,0,0 552.970267843028,355.6621415503024L451.485133921514,316.5810707751512A108.75,108.75 0,0,1 444.33836243740683,331.6002391180341Z" style="pointer-events: none; stroke-width: 1; fill: rgb(239, 85, 59); fill-opacity: 1; stroke: rgb(255, 255, 255); stroke-opacity: 1; opacity: 0.7;"/><g class="slicetext"><text data-notex="1" class="slicetext" text-anchor="middle" x="0" y="0" style="font-family: 'Open Sans', verdana, arial, sans-serif; font-size: 12px; fill: rgb(68, 68, 68); fill-opacity: 1; white-space: pre;" transform="translate(495.4216814905516,351.6814283118496)rotate(25.447130655596595)">Autres acheteurs</text></g></g><g class="slice"><path class="surface" d="M451.485133921514,316.5810707751512L552.970267843028,355.6621415503024A217.5,217.5 0,0,0 561.2916684534669,329.0953567886709L455.6458342267334,303.2976783943355A108.75,108.75 0,0,1 451.485133921514,316.5810707751512Z" style="pointer-events: none; stroke-width: 1; fill: rgb(239, 85, 59); fill-opacity: 1; stroke: rgb(255, 255, 255); stroke-opacity: 1; opacity: 0.7;"/><g class="slicetext"><text data-notex="1" class="slicetext" text-anchor="middle" x="0" y="0" style="font-family: 'Open Sans', verdana, arial, sans-serif; font-size: 12px; fill: rgb(68, 68, 68); fill-opacity: 1; white-space: pre;" transform="translate(504.2208146606001,330.0698296417707)scale(0.9042150070487887)rotate(17.391898787923424)">SOC REGAL MAREE</text></g></g><g class="slice"><path class="surface" d="M455.6458342267334,303.2976783943355L561.2916684534669,329.0953567886709A217.5,217.5 0,0,0 566.067222050424,302.42399557480246L458.033611025212,289.96199778740123A108.75,108.75 0,0,1 455.6458342267334,303.2976783943355Z" style="pointer-events: none; stroke-width: 1; fill: rgb(239, 85, 59); fill-opacity: 1; stroke: rgb(255, 255, 255); stroke-opacity: 1; opacity: 0.7;"/><g class="slicetext"><text data-notex="1" class="slicetext" text-anchor="middle" x="0" y="0" style="font-family: 'Open Sans', verdana, arial, sans-serif; font-size: 12px; fill: rgb(68, 68, 68); fill-opacity: 1; white-space: pre;" transform="translate(512.8867689062978,310.93627480370975)scale(0.9342786880274677)rotate(10.151338751534354)">CHANADE MAREE</text></g></g><g class="slice"><path class="surface" d="M458.033611025212,289.96199778740123L566.067222050424,302.42399557480246A217.5,217.5 0,0,0 567.5,277.50000000000006L458.75,277.5A108.75,108.75 0,0,1 458.033611025212,289.96199778740123Z" style="pointer-events: none; stroke-width: 1; fill: rgb(239, 85, 59); fill-opacity: 1; stroke: rgb(255, 255, 255); stroke-opacity: 1; opacity: 0.7;"/><g class="slicetext"><text data-notex="1" class="slicetext" text-anchor="middle" x="0" y="0" style="font-family: 'Open Sans', verdana, arial, sans-serif; font-size: 12px; fill: rgb(68, 68, 68); fill-opacity: 1; white-space: pre;" transform="translate(512.6430902448473,289.89691901060604)scale(0.6760476538071696)rotate(3.2900776347964893)">EURONOR DISTRIBUTION</text></g></g></g></g><g class="glimages"/><defs id="topdefs-f62b8c"><g class="clips"/></defs><g class="layer-above"><g class="imagelayer"/><g class="shapelayer"/></g><g class="infolayer"><g class="g-gtitle"><text class="gtitle" x="35" y="30" text-anchor="start" dy="0em" style="opacity: 1; font-family: 'Open Sans', verdana, arial, sans-serif; font-size: 17px; fill: rgb(42, 63, 95); fill-opacity: 1; white-space: pre;"><tspan class="line" dy="0em" x="35" y="30">Débouchés des premières ventes, en poids vendu,</tspan><tspan class="line" dy="1.3em" x="35" y="30">du segment FRA NAO DTS40XX NGI</tspan></text></g></g></svg>